<svg xmlns="http://www.w3.org/2000/svg" strokeWidth='1px' viewBox="420 805 210 210"
	xml:space="preserve">
	<circle cx="525" cy="905" r="100" fill='#ffca05' />
  <path stroke='#131313' fill="#131313" d="M489.238 976.863c-.119-.79-.276-1.503-.538-3.004-.097-4.14-.09-7.492.033-11.263.77-3.698-.515-4.734-3.852-4.601-6.936.276-13.888.137-20.834.168-.56-2-2.01-4.335-1.421-5.904.545-1.452 3.24-2.865 5.046-2.942 7.583-.322 15.187-.136 24.02-.136-1.578-2.766-2.73-4.785-4.243-7.3-.722-.977-1.083-1.46-1.444-1.942 0 0-.017.063-.046-.212-.337-.45-.645-.626-.953-.8 0 0-.002.062-.263-.269-10.015-.517-19.769-.702-29.522-.888a16.925 16.925 0 0 1-.941-1.153c-1.227-5.665.173-7.448 5.451-7.505 6.644-.071 13.294.087 19.93-.174 1.392-.055 2.73-1.501 4.093-2.306-1.117-1.087-2.094-2.398-3.387-3.203-1.645-1.025-3.545-1.64-5.427-2.747a49.741 49.741 0 0 0-2.842-3.795c-.014.04.064.01.023-.361-4.231-9.67-4.955-19.568-5.013-29.71.08-.145-.015-.46.247-.608.44-.498.62-.849.747-1.174-.051.027.004.128.232.107.227-.02.683-.046.685.413.742 7.536.94 14.723 2.37 21.657 1.493 7.238 3.028 7.663 10.03 6.002-.22-6.198-.433-12.214-.557-17.81.581 3.536.963 6.672 1.588 9.759 1.163 5.741 3.152 10.77 10.483 10.156 2.48 7.21 3.045 15.036 9.338 20.452 15.642-10.77 31.255-8.97 47.217.883 2.013-5.498 3.936-10.257 5.482-15.137 1.193-3.764 2.526-7.11 7.353-7.602.62-.06.973-.131 1.334.123-1.904 3.348-.722 5.63 2.302 6.29 3.223.704 6.658.444 10.024.638.024.034.076.099.076.099s-.049.365-.416.62a70.004 70.004 0 0 1-2.665 1.483c-.46.048-.92.095-2.079.155-2.058 1.49-3.418 2.97-4.778 4.45l1.12 1.528c9.214 0 18.428 0 27.673-.061.031-.062-.095-.12.027.15.688.81 1.252 1.35 1.833 1.814.016-.075-.136-.095-.142.287.258 4.97-2.257 6.455-6.445 6.402-7.092-.09-14.19-.132-21.276.073-1.52.044-3.008 1.226-4.712 2.085-.545 1.26-.887 2.318-1.55 3.517-.476.574-.632 1.007-.738 1.414.05-.026-.004-.125-.263.05-.458.762-.657 1.347-.835 1.895.02-.038-.057-.075-.341.123.413.846 1.1 2.044 1.81 2.057 7.92.14 15.843.097 23.725.012-.04-.09-.22-.008-.04.256.78.416 1.379.569 2.17.855.193.134.658.192.604.503.438.96.93 1.61 1.361 2.643-1.094 4.084-3.945 4.818-7.263 4.814-6.858-.007-13.715-.002-21.347-.002v18.667c-2.805 3.042-5.61 6.085-8.54 9.426-.595.641-1.066.984-2.084 1.528-1.988 1.518-3.43 2.835-4.871 4.152l-.277.087c-.432.36-.61.641-.79.922 0 0 .063.015-.223.043-.47.333-.653.638-.836.943 0 0 .088.005-.192.023-.466.333-.652.647-.838.961 0 0 .107-.01-.192-.011-.505.315-.71.63-.916.946 0 0 .092-.1-.233-.039-.847.617-1.37 1.173-1.893 1.73 0 0 .07.105-.172.132-.637.444-1.032.861-1.427 1.279-.335.01-.625.13-1.334.595-2.49-2.072-4.516-4.38-6.541-6.687 0 0 .037.033-.019-.316-.674-1.493-1.293-2.636-1.912-3.778 0 0 .03.076.002-.359-1.548-4.854 1.331-6.546 4.563-8.353 4.254-2.38 8.296-5.137 12.69-7.833.494-.382.73-.662.89-.929-.074.015-.027.159.248.053a9.298 9.298 0 0 0 1.448-1.345c-.03-.013-.023.051.24-.024.467-.367.671-.659.82-.953-.056-.001-.056.11.21.02.453-.404.64-.716.79-1.022-.035.008-.015.078.277-.113.515-1.077.737-1.964.902-2.847-.056.004-.038.115.188-.186.32-2.248.413-4.196.564-7.318-1.807 1.592-2.591 2.283-3.394 3.03-.018.056.063-.03-.177.05-.463.325-.687.57-.93.817-.02.001-.052-.024-.306.097a9.041 9.041 0 0 0-1.342 1.327c.043.01.057-.077-.249.007a26.985 26.985 0 0 0-2.74 2.004c.035.01.03-.063-.302 0-1.826.98-3.322 1.898-4.716 2.908.1.092-.08-.113-.46-.036-5.745.858-11.109 1.64-16.845 2.327-3.767-1.13-7.161-2.165-10.557-3.167-.001.033.057 0-.09-.277-1.07-.767-1.99-1.256-2.913-1.712-.002.032.06.013-.112-.259a46.472 46.472 0 0 0-3.841-2.826c-.014.047.083.07-.07-.229-.737-.52-1.322-.74-1.75-.96.158 0 .16-.315.005-.599-.974-.867-1.794-1.451-3.932-2.974 1.148 3.997 1.87 6.514 2.575 8.933-.018-.1-.216-.061-.259.293.436 1.12.915 1.887 1.383 2.658-.01.005.003-.013.087.217.288.52.566.672.928.725.008.042.09.025.246.284.683.489 1.21.717 1.738.865 0-.08-.16-.08-.136.238.396.491.769.663 1.159.767.017-.069-.12-.106-.081.185.364.494.692.697 1.17 1.194 2.575 1.974 4.892 3.836 7.438 5.3 8.945 5.144 8.975 5.092 6.145 15.034 0 0 .055.059-.193.221-1.065 1.717-1.88 3.27-2.695 4.824 0 0 .075.075-.176.109-.477.34-.702.647-.927.954 0 0 .16-.09-.183-.137-.728.026-1.115.098-1.502.17 0 0-.012.06-.18-.19-.717-.463-1.266-.674-1.815-.886 0 0-.031.08-.049-.17-.318-.437-.62-.622-.92-.806-.19-.263-.381-.526-.89-1.098-.507-.6-.777-.756-1.125-.774 0 0-.01-.06-.04-.06-4.07-3.932-8.107-7.861-12.58-12.186-1.05-.89-1.662-1.385-2.274-1.88a63.413 63.413 0 0 0-1.918-2.094c-.647-.506-.927-.672-1.207-.839 0 0-.032.04-.093-.228-.35-.45-.64-.632-.928-.814 0 0 .003.074-.02-.21-.333-.468-.643-.65-.953-.833 0 0 .162.066.2-.012m48.893-30.84c.112-6.63-.158-6.898-6.478-6.714-4.978.144-9.963.453-14.934.319-3.948-.106-4.757 1.786-4.577 5.217.183 3.497 1.793 5.923 5.15 4.774 3.028-1.037 5.517-3.65 8.274-5.589 5.855 7.901 8.623 8.642 12.565 1.993zM598.331 913.997c-.368-.33-.568-.62-.625-.935-.427-2.355-1.228-4.756-.996-7.05.072-.719 4.145-1.916 4.351-1.594 1.28 2.002 1.98 4.375 2.836 7.03-.037.405.014.469-.224.525-.416.374-.593.692-.77 1.01 0 0 .049-.073-.335-.06-1.44.425-2.497.838-3.554 1.25 0 0-.448-.15-.683-.176zM563.74 983.119c3.34-.329 5.65.537 5.829 4.506.038.357.04.512-.18.71-1.019.953-1.82 1.707-2.62 2.462 0 0 .16.019-.231-.135-1.192-.145-1.993-.138-2.793-.13-3.189-2.282-3.838-4.658-.006-7.413z"/>
  <path stroke='#131313' fill="#131313" d="M567.52 973.665c1.196-2.298.831-6.186 4.7-5.217 1.394.35 3.224 2.804 3.183 4.25-.092 3.253-2.727 3.641-5.876 2.948-.485-.338-.67-.53-1.235-.95a8.785 8.785 0 0 0-1.2-.903s.368.047.427-.128zM481.134 989.609c.03-1.757.06-3.513.142-5.641 2.034.056 4.016.484 6.302 1.113-.227 1.763-.759 3.326-1.825 5.212-1.263.366-1.991.409-2.72.451 0 0 .047.12-.055-.177-.683-.517-1.264-.737-1.844-.958zM477.946 976.87c-1.152-.863-2.658-1.796-2.566-2.532.258-2.08 1.171-4.079 1.826-6.11 1.633.875 3.924 1.385 4.68 2.747.564 1.015-.719 3.202-1.468 4.724-.293.597-1.374.805-2.472 1.171zM576.858 919.766c-.308.387-.505.585-.787.988-3.454.017-6.889.277-10.112-.427-3.024-.66-4.206-2.942-2.226-6.26.066-.295.02-.139.255-.283.493-.407.749-.67 1.005-.863.001.07-.14.07.079-.1.44-.46.664-.753.854-.97-.034.075-.18.004.192-.054 4.797-5.391 4.228-11.514 3.03-18.003-1.596-.456-3.059-.625-4.837-.561-1.192 3.22-2.166 6.184-2.927 9.2-1.696 6.726-4.397 9.108-11.337 9.554-1.898.122-3.818-.104-5.727-.17l.25-1.206c2.793-1.607 5.586-3.214 8.444-5.03.244-.47.492-.606 1.03-.783.453-.452.685-.738.886-.914-.031.11-.24.02.11-.133 4.472-3.915 2.868-8.72 2.553-13.213-.055-.786-1.555-2.091-2.404-2.105-6.371-.102-12.76-.13-19.108.32-1.087.077-3.09 2.836-2.816 3.86 1.265 4.734 3.134 9.313 4.9 13.904.59 1.535 1.512 2.943 2.283 4.41-1.699.06-3.397.126-5.097.178-.496.016-.994-.009-1.452-.028.039-.014.008.062.06-.32.247-1.69 1.008-3.874.55-4.169-4.585-2.96-3.787-8.15-5.583-12.229-.497-1.129-2.627-2.138-3.97-2.092-.943.033-1.82 1.947-2.736 2.977-.008-.044.082-.045-.302.025-1.494 4.704-2.602 9.337-3.751 13.914-.04-.057.076-.13-.153.034-.458.46-.686.756-.914.965 0-.088.176-.08-.064.068-.486.432-.73.715-.946.942.03-.057.14.01-.297-.024-8.351 1.332-16.215 1.512-23.913-1.084.047-.029.102.065-.044-.151-.4-.453-.654-.688-.877-.92.032.004-.004.057-.06-.248-.442-.77-.828-1.237-1.141-1.677.072.026.011.167.073-.274-.606-4.65-.93-8.953-2.051-13.038-.904-3.291-3.192-4.027-6.037-.912-.519.832-.745 1.475-.97 2.119l.647 18.23c-7.003 1.66-8.538 1.236-10.03-6.002-1.43-6.934-1.629-14.121-2.237-22-.294-4.989-1.14-9.182-1.063-13.358.22-12.028 3.346-23.193 11.002-32.78 0 0-.086-.05.252-.062.83-.34 1.32-.666 2.027-1.25 2.9-4.883 5.586-9.509 8.271-14.134 0 0 .232.368.501.255 3.793-1.433 7.24-3.04 10.859-4.003 4.713-1.256 7.37.627 7.782 5.294h32.756c-3.78 2.969-6.163 4.84-8.996 6.748-6.076.07-11.717-.14-17.326.191-10.675.63-18.888 9.717-17.553 19.318 8.71-5.129 17.37-4.211 26.09-.05 11.16 5.325 22.811 8.122 35.045 6.651-.701 3.642-1.181 6.952-1.665 10.615 2.616 1.448 5.148 2.951 7.877 3.539 3.654.786 5.954 2.188 5.992 6.304.008.842 1.265 1.672 2.302 2.485 3.797-1.843 4.584 1.886 6.829 3.31.703 3.527 1.994 6.833 1.564 9.898-1.174 8.357-3.074 16.611-4.687 24.906 0 0-.072.46-.154.678m-94.73-39.726s.258.078-.165.342c.14.5.282 1 .226 1.481 0 0 .03-.195.196.588 1.62.516 3.252 1.506 4.86 1.47 8.628-.19 17.251-.637 25.77-.951 0 0-.042-.106.61.403 1.655.186 3.311.372 5.068.366 0 0 .195.093.609.548.548.254 1.095.508 1.89 1.444 2.283 2.84 4.887 2.717 7.945 1.204 2.941-1.455 6.027-3.358 9.147-3.56 6.916-.447 13.894.184 20.843.073 1.914-.03 3.81-1.128 5.757-1.564 0 0-.176.03.441-.236 1.745-1.4 2.26-2.663-.325-3.646 0 0-.07.064-.336-.657-3.275-.389-6.551-.778-9.647-.995 0 0-.172.18-.524-.512-5.702-1.988-11.383-4.041-17.114-5.942-4.137-1.372-8.341-2.542-12.44-3.803 0 0-.015.073-.217-.644-1.352-.357-2.704-.714-4.003-.979 0 0-.098.045-.108-.701-4.87-1.926-9.64-4.205-14.657-5.603-1.992-.556-5.541.075-6.614 1.498-2.6 3.449-4.163 7.68-6.247 11.481 0 0 .12-.097-.336.218-.242.278-.484.557-.681.72 0 0 .112.052-.642.019-1.088 1.051-2.176 2.103-3.289 3.067 0 0 .09-.01-.558.08-.423.452-.846.905-1.22 1.215 0 0 .123.085-.576-.02-.572.614-1.144 1.228-1.733 2.352-.01.17-.019.34-.402.384 0 0-.38-.108-.85.231-.25.296-.5.593-.678.63m11.892 21.72c1.297 1.446 2.594 2.89 4.2 5.003 3.726.743 7.43 1.636 11.184 2.18 2.776.401 3.738-1.385 4.04-4.328.182-.537.363-1.073 1.146-1.989 1.726-4.047 5.802-7.839.971-13.2-6.463-3.054-12.988-3.22-20.225-.408-.744.347-1.488.694-2.739 1.654-.612 3.594-1.922 7.285 1.423 11.089m-14.899-45.077-2.755 16.25 1.143.19 13.953-12.256-9.207-11.93c-.985 2.403-1.93 4.704-3.134 7.746m24.382-31.215s.017.043 0 0zM204 59l-.147.238s.015-.167.081-.202L204 59zm120.004 124.997c.343.3.692.592 1.009.915.045.045-.063.24-.1.366a5.898 5.898 0 0 1-.878-1.052c-.043-.217-.035-.226-.031-.229zM421.998 70.997c-.003-.003.154-.243.154-.243s-.011.176-.078.213c-.068.037-.074.033-.076.03zm2.51-1.487c-.022.01.021-.008 0 0zM595.317 887.205c3.55-1.026 6.38-.77 7.105 3.948.078.293.124.57-.018.68a6.482 6.482 0 0 0-.502 1.232c-2.836 2.11-5.553 2.705-8.073-1.181.11-1.568.33-2.575.548-3.582 0 0-.131-.084.117-.119.423-.384.597-.732.77-1.08 0 0 .004.098.053.102z"/>
  <path stroke='#131313' fill="#131313" d="M577.26 918.974c1.365-8.18 3.265-16.435 4.439-24.792.43-3.065-.86-6.37-1.553-10.361-.117-9.848-.047-18.901.278-27.663.595 8.212.878 16.136 1.32 24.051.093 1.654.778 3.275 1.19 4.912 0 0 .048-.089.062.183.32.513.626.754.931.994 0 0-.198-.01-.207.088a5517.577 5517.577 0 0 1-4.205 28.783c-.334.9-.567 1.426-.842 2.24-.417.675-.792 1.063-1.414 1.565zM448.194 911.75c-.028-1.798-.78-4.439.046-5.097 1.426-1.135 4.07-1.757 5.746-1.205 1.104.363 1.407 3.16 1.99 5.213-1.688 1.144-3.298 1.943-5.251 2.657-.803-.19-1.262-.295-1.722-.4 0 0 .066.091.064-.236-.331-.52-.66-.711-.988-.903 0 0 .1.02.115-.029zM21.961 33.377c-.162-.236-.17-.468-.178-.699l.391.012c-.02.23-.04.46-.213.687zM590.233 879.667a523.365 523.365 0 0 0-2.058-7.056c4.618-1.132 8.118-1.152 8.67 2.878.523 3.82-2.986 3.96-6.21 4.1-.366.032-.423.127-.402.078z"/>
  <path stroke='#131313' fill="#131313" d="M586.803 831.311c-1.689 6.544-3.327 13.058-5.054 19.547-.32 1.2-.996 2.306-1.684 3.931-.258.765-.155.995.134 1.166 0 0-.07-.026-.05-.057-.05 9.022-.12 18.075-.2 27.592-2.06-.63-2.846-4.359-6.7-2.96-.084-6.585.245-12.748.578-19.015-3.86 1.751-6.845 3.106-9.954 4.371-.441-.184-.697-.08-1.188.399-2.046.79-3.796 1.4-5.546 2.008.48-3.31.96-6.62 1.944-10.463 8.055-3.144 15.109-6.374 18.337-14.8.286-.569.344-.994.401-1.419-.47.209-.94.418-1.709.815-13.836 8.917-36.74 7.329-44.819-3.211 10.253-.34 21.269 1.825 27.549-9.465-8.43 3.612-17.13 2.983-25.848 2.134l8.546-6.711h-32.756c-.412-4.667-3.069-6.55-7.782-5.294-3.619.964-7.066 2.57-10.984 3.825.634-1.012 1.662-1.959 3.208-3.228 1.613-1.037 2.709-1.752 3.805-2.466 0 0-.033-.019.286-.078.637-.343.955-.629 1.272-.914 0 0 .143.182.562.125.945-.393 1.472-.728 2-1.064 0 0-.107-.021.31-.014 9.315-.134 18.214-.24 27.111-.425 8.086-.169 16.169-.425 24.253-.643-.544 1.722-1.087 3.444-2.082 5.588-2.199 1.744-3.946 3.066-5.597 4.712 4.059 1.409 7.903 1.91 11.102-1.826.219.033.167.473.47.346.668-.371 1.032-.616 1.698-1.075 3.022-.794 5.741-1.374 8.46-1.953.157.085.314.17.837.713-.623 5.193-1.612 9.928-2.66 14.562-.058-.102-.288.09-.288.09s.293-.103.718-.06c5.581-1.412 10.716-2.954 15.907-4.278 1.763-.45 3.667-.346 5.506-.495 0 0-.073-.048-.093-.01zM489.337 823.76c-2.38 4.492-5.066 9.118-8.012 13.608.125-2.168.51-4.2.896-6.232 0 0-.037-.04-.025-.013 2.288-2.392 4.562-4.811 7.141-7.363zM461.817 857.254c2.805-.268 5.54-.061 5.664 3.283.052 1.407-1.783 4.177-2.399 4.078-1.995-.322-3.921-1.546-5.634-2.761-.348-.247.353-1.97.615-3.374.045-.36-.016-.411.306-.449.615-.354.909-.67 1.202-.988 0 0 .114.256.246.211zM408.493 167.49c.02-.008-.021.008 0 0zm26.567 25.76c.376-.25.823-.25 1.607-.251-.288.168-.912.334-1.607.252zM356.62 375.664c-5.322.242-10.997.28-17.138.302 5.285-.179 11.034-.343 17.137-.302zm1.647 1.285c-.237.015-.37-.417-.44-.632.218-.051.508.112.973.454.176.178-.297.162-.533.178zM809.511 188.492c.009.022-.009-.022 0 0zm-349.826 44.67a15.785 15.785 0 0 1 2.22-3.953c-.405 1.23-1.188 2.493-2.22 3.953z"/>
  <path stroke='#131313' fill="#DDE1DE" d="M532.544 831.92c9.168.813 17.868 1.442 26.298-2.17-6.28 11.29-17.296 9.125-27.549 9.465 8.078 10.54 30.983 12.128 45.011 3.448.623.202.755.356.888.51-3 8.283-10.054 11.513-17.888 14.326-12.738 2.003-24.39-.794-35.548-6.12-8.72-4.16-17.382-5.078-26.09.051-1.336-9.601 6.877-18.687 17.552-19.318 5.609-.331 11.25-.12 17.326-.191z"/>
  <path stroke='#131313' fill="#131313" d="M555.04 903.751c.095-2.942.22-6.127 1.061-9.11 1.219-4.321-1.247-5.22-4.508-5.547-1.98-.198-4.091-.504-5.967-.042-3.676.904-9.956-2.287-10.374 4.132-.625 9.6 4.582 14.684 12.582 13.925 1.46-.139 2.877-.717 4.714-1.206-2.392 1.494-5.185 3.101-7.978 4.708l-.25 1.205c1.91.067 3.83.293 5.727.171 6.94-.446 9.641-2.828 11.337-9.553.761-3.017 1.735-5.981 2.91-8.763-.624 4.889-1.546 9.572-2.468 14.255a39.487 39.487 0 0 0-1.828 2.422c-8.437 5.392-17 5.293-25.933 1.053.292-.305.79-.28 1.286-.296 1.7-.052 3.398-.118 5.097-.179-.77-1.466-1.693-2.874-2.284-4.41-1.765-4.59-3.634-9.169-4.9-13.903-.273-1.024 1.73-3.783 2.817-3.86 6.348-.45 12.737-.422 19.108-.32.849.014 2.349 1.319 2.404 2.105.315 4.492 1.92 9.298-2.553 13.213z"/>
  <path stroke='#131313' fill="#DDE1DE" d="M479.251 856.315c1.075-2.672 2.019-4.973 3.004-7.376l9.207 11.93-13.953 12.256-1.143-.19c.919-5.416 1.837-10.833 2.885-16.62zm77.884 12.331c1.754-.962 3.504-1.571 5.817-2.296.723-.202.884-.288 1.045-.374l9.83-4.461c-.333 6.267-.662 12.43-.933 19.037-.625-.391-1.882-1.221-1.89-2.063-.038-4.116-2.338-5.518-5.992-6.304-2.73-.588-5.26-2.091-7.877-3.54z"/>
  <path stroke='#131313' fill="#131313" d="M520.616 864.142c-5.714-1.233-11.421-2.884-17.158-4.423-2.674-.718-3.613.881-4.614 3.167-1.264 2.889-3.302 5.438-5.327 8.254 1.66-3.796 3.222-8.027 5.823-11.476 1.073-1.423 4.622-2.054 6.614-1.498 5.017 1.398 9.788 3.677 14.662 5.976zm8.501 19.891c8.862-3.912 18.27-1.266 27.38-2.239 2.45-.261 4.961.059 7.895.015-1.454.51-3.351 1.608-5.265 1.64-6.949.11-13.927-.52-20.843-.074-3.12.202-6.206 2.105-9.147 3.56-3.058 1.513-5.662 1.635-8.037-1.575-.092-.37-.031-.431.323-.398 1.054.177 1.752.32 2.451.464 0 0-.058-.137.116.167 1.227.14 2.28-.021 3.332-.184 0 0-.08-.025.222-.06.726-.463 1.15-.889 1.573-1.316zm25.552-7.849c-9.667-2.952-19.51-6.25-29.58-9.818 3.949.988 8.153 2.158 12.29 3.53a316.738 316.738 0 0 1 17.29 6.288zm-20.71 34.572c-1.731-3.457-3.645-7.216-5.012-11.164-1.058-3.053-1.83-5.84-6.347-4.479.535-.899 1.413-2.813 2.356-2.846 1.343-.046 3.473.963 3.97 2.092 1.796 4.079.998 9.27 5.584 12.23.457.294-.304 2.478-.551 4.167zm-18.166.412c-6.214 4.493-17.541 4.284-23.795-.733 7.58 2.245 15.444 2.065 23.795.733zm-33.491-29.108c8.437-.323 16.957-.268 25.477-.175 1.622.018 3.243.19 5.103.666-8.386.733-17.009 1.18-25.637 1.37-1.608.036-3.24-.954-4.943-1.861zm7.529 24.754c-1.08-3.247-2.378-6.888-3.017-10.64-.436-2.563-1.162-3.925-4.35-3.449 2.124-2.976 4.412-2.24 5.316 1.051 1.122 4.085 1.445 8.389 2.051 13.038zm23.217-1.784c.094 2.529-.868 4.315-3.644 3.913-3.755-.543-7.458-1.436-11.31-2.544-.126-.365-.07-.428.334-.335 5.218 1.816 9.876 2.181 14.208-1.37l.412.336zm-17.062-16.02c6.587-2.803 13.112-2.637 19.708.798.132.38.006.503-.392.404-6.647-.403-12.897-.708-19.188-1.06a9.406 9.406 0 0 0-.128-.141zm25.932 6.259c-.784 4.476-1.952 9.023-3.416 13.77a112.916 112.916 0 0 1 3.416-13.77zm44.127 15.207a1257.12 1257.12 0 0 1 3.137-15.969c1.164 5.776 1.733 11.899-3.064 17.29-.272-.307-.172-.672-.073-1.32zm-50.154-20.347c4.501 4.659.425 8.45-1.663 12.63-.362.131-.487.017-.418-.36.676-4.282 1.283-8.185 1.89-12.088 0 0 .126-.123.191-.182zm-21.852 10.868c-3.364-3.04-2.054-6.73-1.153-10.583.289-.26.369-.173.402.214.351 3.646.668 6.904.926 10.213-.06.05-.175.156-.175.156zm70.758-23.291c-3.053-.083-6.238-.527-9.691-1.25 3.007.111 6.283.5 9.69 1.25z"/>
  <path stroke='#131313' fill="#131313" d="M497.94 906.065c-1.326-1.413-2.623-2.858-3.91-4.686.009-.382.124-.487.408-.303 1.384 1.755 2.485 3.325 3.587 4.895l-.086.094zm-6.13-33.947c-.75 1.006-1.879 1.994-3.323 3.06.771-.973 1.859-2.025 3.324-3.06zm73.207 9.662c-.2-.893-.093-1.919-.035-3.328 2.604.533 2.088 1.797.035 3.329zm-40.194-15.973c-1.161-.078-2.424-.515-3.921-1.191 1.116.119 2.468.476 3.92 1.191zm-11.525 17.311c1.354-.113 3.033.03 5.003.492-1.365.135-3.02-.051-5.003-.492zm-27.158-6.621c-.259.575-.867 1.097-1.77 1.704.277-.529.85-1.143 1.77-1.704zm7 13.611a13.716 13.716 0 0 1 2.52-1.093c.326-.004.412.089.244.378-.994.475-1.822.662-2.65.848 0 0-.079-.086-.114-.133zm25.955-6.048c.25-.211.707-.194 1.5-.078.337.1.373.053.374.282.002.23.1.665.1.665l-.093.09a9.906 9.906 0 0 1-1.88-.96zm-36.92-3.81c.223.26.235.652.228 1.338-.158-.206-.3-.706-.228-1.338zm5.736-5.046c-.106.395-.536.833-1.28 1.337.11-.387.533-.84 1.28-1.337zm26.016 27.744c-.12.595-.3 1.131-.68 1.875-.2.207-.474-.016-.506-.388.313-.8.656-1.23 1-1.659 0 0 .125.114.186.172zm-23.028 5.817c-.34-.154-.737-.613-1.174-1.387.346.15.732.616 1.174 1.387zM503.512 825.492c.008.021-.01-.022 0 0zM491.836 909.933c-.164.022-.475-.173-.847-.645.193-.043.447.192.847.645zm26.178-.716c.051.195-.127.554-.61.983-.076-.227.152-.523.61-.983zm-.978 1.033c.039.19-.163.53-.67.934-.06-.219.184-.502.67-.934zm48.036 2.572c-.035-.167.148-.503.61-.942.054.188-.17.48-.61.942zm-1.084.962c-.016-.165.205-.475.715-.859.034.189-.222.452-.715.86zm-9.945-8.986c-.031-.173.158-.511.633-.937.053.2-.179.485-.633.937zm-71.003-25.556c.027.175-.183.52-.688.961-.046-.2.204-.496.689-.961zm9.945-8.036c.032.176-.164.51-.657.919-.055-.205.187-.484.657-.92zM454.142 877.791c-.394-3.186.32-5.51 4.065-5.794 3.085-.234 5.164.565 4.829 4.612.007.407-.2.575-.436.863-.434.685-.631 1.083-.829 1.48 0 0 .185-.116-.295-.114-2.457-.013-4.434-.03-6.411-.046 0 0-.024.146-.041-.122-.33-.482-.644-.695-.957-.908 0 0 .049.057.075.03zM590.969 862.68c-.414.278-.696.44-.996.958-2.138-.399-4.278-.862-6.15-1.839-.295-.154.62-2.628 1.154-4.32 2.223.208 4.265.706 6.592 1.426.244.875.205 1.53.143 2.51-.349.46-.569.693-.743 1.266zM580.2 855.72c-.29.064-.393-.166-.227-.566.084-.112.229.333.227.567zM456.902 893.621c-.388.278-.674.427-1.015.904-1.357.237-2.604.253-4.221.2-.465-.394-.66-.64-1.18-.884-.43-.597-.632-1.116-1.034-1.831-.177-.85-.152-1.503-.169-2.483.3-.428.536-.643.732-1.21 1.753-.59 3.442-.94 5.516-1.255.478.371.679.62 1.216.872.328.404.426.72.72 1.193.147 1.04.098 1.921.034 3.135-.274.541-.453.805-.599 1.36zM545.146 825.297c3.274-.813 6.644-1.304 10.449-1.826-2.546 3.736-6.39 3.235-10.449 1.826z"/>
</svg>